{
  "title": "Vikings Season 2 Uncensored 1080p WEB-DL x264 AC3 7.1 .MKV",
  "uid": 10264107,
  "size": 17730681111,
  "categoryP": "video",
  "categoryS": "hd___tv_shows",
  "magnet": "?xt=urn:btih:dee47c3b2fa845d61fff6e79608ffdd9bf8b8b77&amp;dn=Vikings+Season+2+Uncensored+1080p+WEB-DL+x264+AC3+7.1+.MKV&amp;tr=udp%3A%2F%2Ftracker.openbittorrent.com%3A80&amp;tr=udp%3A%2F%2Fopen.demonii.com%3A1337&amp;tr=udp%3A%2F%2Ftracker.coppersurfer.tk%3A6969&amp;tr=udp%3A%2F%2Fexodus.desync.com%3A6969",
  "seeders": 189,
  "leechers": 77,
  "uploader": "Danimal1q2w3",
  "files": 10,
  "time": 1401498938,
  "description": "Mediainfo from the first episode\n\neneral\nUnique ID                                : 201423856979885272000123275006835893469 (0x9788D2E26776F032991C4AF8872324DD)\nComplete name                            : D:DownloadsSeedsVideoVikings Season 2 1080pS02E01 Brother's War.mkv\nFormat                                   : Matroska\nFormat version                           : Version 2\nFile size                                : 1.69 GiB\nDuration                                 : 44mn 8s\nOverall bit rate                         : 5 496 Kbps\nEncoded date                             : UTC 2014-02-28 08:38:05\nWriting application                      : mkvmerge v5.8.0 ('No Sleep / Pillow') built on Sep  2 2012 15:37:04\nWriting library                          : libebml v1.2.3 + libmatroska v1.3.0\n\nVideo\nID                                       : 1\nFormat                                   : AVC\nFormat/Info                              : Advanced Video Codec\nFormat profile                           : &lt;a class=&quot;__cf_email__&quot; href=&quot;/cdn-cgi/l/email-protection&quot; data-cfemail=&quot;baf2d3ddd2faf68e948a&quot;&gt;[email&amp;#160;protected]&lt;/a&gt;&lt;script cf-hash='f9e31' type=&quot;text/javascript&quot;&gt;\n/* &lt;![CDATA[ */!function(){try{var t=&quot;currentScript&quot;in document?document.currentScript:function(){for(var t=document.getElementsByTagName(&quot;script&quot;),e=t.length;e--;)if(t[e].getAttribute(&quot;cf-hash&quot;))return t[e]}();if(t&amp;&amp;t.previousSibling){var e,r,n,i,c=t.previousSibling,a=c.getAttribute(&quot;data-cfemail&quot;);if(a){for(e=&quot;&quot;,r=parseInt(a.substr(0,2),16),n=2;a.length-n;n+=2)i=parseInt(a.substr(n,2),16)^r,e+=String.fromCharCode(i);e=document.createTextNode(e),c.parentNode.replaceChild(e,c)}}}catch(u){}}();/* ]]&gt; */&lt;/script&gt;\nFormat settings, CABAC                   : Yes\nFormat settings, ReFrames                : 4 frames\nCodec ID                                 : V_MPEG4/ISO/AVC\nDuration                                 : 44mn 8s\nBit rate                                 : 5 003 Kbps\nWidth                                    : 1 916 pixels\nHeight                                   : 1 076 pixels\nDisplay aspect ratio                     : 16:9\nFrame rate mode                          : Constant\nFrame rate                               : 23.976 fps\nColor space                              : YUV\nChroma subsampling                       : 4:2:0\nBit depth                                : 8 bits\nScan type                                : Progressive\nBits/(Pixel*Frame)                       : 0.101\nStream size                              : 1.54 GiB (91%)\nLanguage                                 : English\nDefault                                  : Yes\nForced                                   : No\nColor primaries                          : BT.709\nTransfer characteristics                 : BT.709\nMatrix coefficients                      : BT.709\n\nAudio\nID                                       : 2\nFormat                                   : AC-3\nFormat/Info                              : Audio Coding 3\nMode extension                           : CM (complete main)\nFormat settings, Endianness              : Big\nCodec ID                                 : A_AC3\nDuration                                 : 44mn 8s\nBit rate mode                            : Constant\nBit rate                                 : 384 Kbps\nChannel(s)                               : 6 channels\nChannel positions                        : Front: L C R, Side: L R, LFE\nSampling rate                            : 48.0 KHz\nBit depth                                : 16 bits\nCompression mode                         : Lossy\nStream size                              : 121 MiB (7%)\nLanguage                                 : English\nDefault                                  : Yes\nForced                                   : No\n\nText\nID                                       : 3\nFormat                                   : UTF-8\nCodec ID                                 : S_TEXT/UTF8\nCodec ID/Info                            : UTF-8 Plain Text\nTitle                                    : CC\nLanguage                                 : English\nDefault                                  : No\nForced                                   : No",
  "parsed": {
    "xt": "urn:btih:dee47c3b2fa845d61fff6e79608ffdd9bf8b8b77",
    "dn": "Vikings Season 2 Uncensored 1080p WEB-DL x264 AC3 7.1 .MKV",
    "tr": [
      "udp://exodus.desync.com:6969",
      "udp://open.demonii.com:1337",
      "udp://tracker.coppersurfer.tk:6969",
      "udp://tracker.openbittorrent.com:80"
    ],
    "infoHash": "dee47c3b2fa845d61fff6e79608ffdd9bf8b8b77",
    "infoHashBuffer": {
      "type": "Buffer",
      "data": [
        222,
        228,
        124,
        59,
        47,
        168,
        69,
        214,
        31,
        255,
        110,
        121,
        96,
        143,
        253,
        217,
        191,
        139,
        139,
        119
      ]
    },
    "name": "Vikings Season 2 Uncensored 1080p WEB-DL x264 AC3 7.1 .MKV",
    "announce": [
      "udp://exodus.desync.com:6969",
      "udp://open.demonii.com:1337",
      "udp://tracker.coppersurfer.tk:6969",
      "udp://tracker.openbittorrent.com:80"
    ],
    "urlList": []
  },
  "previous": 266,
  "peers": 34,
  "last_updated": "2016-12-25T15:59:38.961Z"
}